<svg width="137" height="35" viewBox="0 0 137 35" fill="none" xmlns="http://www.w3.org/2000/svg">
<path d="M3.44499 25.8398V14.0914H0V8.37827H13.0745V14.0914H9.62952V25.8398H3.44499Z" fill="#202040"/>
<path d="M17.6337 25.8398V13.507H23.3596V15.2365C23.8613 14.5447 24.4296 14.008 25.0645 13.6263C25.6916 13.2844 26.3853 13.1134 27.1456 13.1134H27.4043C27.4827 13.1134 27.5375 13.1214 27.5689 13.1373V19.1248C27.2475 18.9498 26.9457 18.8107 26.6635 18.7073C26.3657 18.6278 26.1148 18.588 25.911 18.588C25.1586 18.588 24.5824 18.7987 24.1827 19.2202C23.7594 19.6496 23.5478 20.2261 23.5478 20.9496V25.8398H17.6337Z" fill="#202040"/>
<path d="M32.3985 25.8875V13.5547H38.3008V25.8875H32.3985ZM36.9722 10.4536C36.9722 10.9069 36.8272 11.2567 36.5371 11.5032C36.2314 11.7497 35.8395 11.873 35.3614 11.873C34.8754 11.873 34.4796 11.7497 34.1739 11.5032C33.8838 11.2488 33.7388 10.8989 33.7388 10.4536C33.7388 10.0004 33.8838 9.65051 34.1739 9.40401C34.4482 9.17342 34.844 9.05812 35.3614 9.05812C35.8709 9.05812 36.2628 9.17342 36.5371 9.40401C36.8272 9.64256 36.9722 9.99243 36.9722 10.4536Z" fill="#202040"/>
<path d="M87.7591 25.8398V8.37827H93.9554V20.1744H99.9753V25.8398H87.7591Z" fill="#202040"/>
<path d="M110.978 21.391C111.409 21.391 111.754 21.2359 112.012 20.9258C112.279 20.6077 112.412 20.2022 112.412 19.7092C112.412 19.2003 112.287 18.7948 112.036 18.4926C111.777 18.1825 111.424 18.0275 110.978 18.0275C110.539 18.0275 110.194 18.1825 109.943 18.4926C109.669 18.8107 109.531 19.2162 109.531 19.7092C109.531 20.2022 109.669 20.6077 109.943 20.9258C110.194 21.2359 110.539 21.391 110.978 21.391ZM118.079 19.7092C118.079 20.6157 117.887 21.5023 117.503 22.369C117.096 23.2198 116.531 23.9633 115.81 24.5994C115.191 25.1321 114.47 25.5536 113.647 25.8637C112.808 26.1579 111.918 26.305 110.978 26.305C110.021 26.305 109.136 26.1579 108.32 25.8637C107.529 25.6013 106.8 25.1799 106.134 24.5994C105.405 23.9712 104.852 23.2278 104.476 22.369C104.068 21.5341 103.864 20.6475 103.864 19.7092C103.864 18.755 104.068 17.8605 104.476 17.0256C104.656 16.6041 104.879 16.2185 105.146 15.8686C105.412 15.5187 105.742 15.1689 106.134 14.819C106.8 14.2385 107.529 13.8171 108.32 13.5547C109.136 13.2605 110.021 13.1134 110.978 13.1134C111.918 13.1134 112.804 13.2605 113.635 13.5547C114.474 13.8489 115.207 14.2704 115.834 14.819C116.539 15.4392 117.096 16.1747 117.503 17.0256C117.887 17.8923 118.079 18.7868 118.079 19.7092Z" fill="#202040"/>
<path d="M128.341 19.3872C128.341 19.8802 128.47 20.2579 128.729 20.5203C128.995 20.8065 129.356 20.9496 129.811 20.9496C130.273 20.9496 130.634 20.8065 130.892 20.5203C131.167 20.242 131.304 19.8643 131.304 19.3872C131.304 18.926 131.167 18.5443 130.892 18.2421C130.634 17.9479 130.273 17.8008 129.811 17.8008C129.379 17.8008 129.027 17.94 128.752 18.2183C128.478 18.5602 128.341 18.9498 128.341 19.3872ZM131.163 24.7187V23.6452C130.591 24.2813 130.01 24.7346 129.423 25.0049C128.835 25.2991 128.161 25.4462 127.4 25.4462C125.966 25.4462 124.794 24.9016 123.885 23.8122C123.43 23.2953 123.085 22.6791 122.85 21.9635C122.615 21.2478 122.497 20.4725 122.497 19.6376C122.497 17.6816 122.944 16.0992 123.838 14.8906C124.723 13.7058 125.911 13.1134 127.4 13.1134C128.145 13.1134 128.839 13.2764 129.481 13.6024C130.085 13.9284 130.645 14.4254 131.163 15.0933V13.507H136.818V24.0507C136.818 25.148 136.771 25.9551 136.677 26.472C136.583 27.0206 136.43 27.5176 136.219 27.9629C135.717 29.0125 134.835 29.8196 133.573 30.3841C132.28 30.9248 130.657 31.1952 128.705 31.1952C127.647 31.1952 126.628 31.0958 125.648 30.897C124.747 30.7141 123.881 30.4279 123.05 30.0382L124.32 26.0545C125.033 26.4919 125.692 26.8099 126.295 27.0087C126.906 27.2234 127.549 27.3307 128.223 27.3307C129.164 27.3307 129.893 27.1121 130.41 26.6747C130.912 26.2136 131.163 25.5615 131.163 24.7187Z" fill="#202040"/>
<path fill-rule="evenodd" clip-rule="evenodd" d="M59.8157 3.26208C64.1033 -1.08736 71.0548 -1.08736 75.3424 3.26208C79.6296 7.61113 79.63 14.6621 75.3436 19.0116L75.3424 19.0128L64.7779 29.7616C64.4837 30.0609 64.0843 30.2291 63.6677 30.2291H50.3424C49.4765 30.2291 48.7747 29.5171 48.7747 28.6388V15.1212C48.7747 14.6994 48.9398 14.2949 49.2338 13.9967L59.8157 3.26208ZM73.1254 5.51112C70.0622 2.40378 65.0959 2.40378 62.0328 5.51112L51.91 15.7799V27.0485H63.017L73.1254 16.7638C76.1885 13.6565 76.1885 8.61846 73.1254 5.51112Z" fill="#202040"/>
<path fill-rule="evenodd" clip-rule="evenodd" d="M68.6954 10.0209C69.3077 10.6419 69.3077 11.6489 68.6954 12.2699L46.7478 34.5342C46.1356 35.1553 45.143 35.1553 44.5308 34.5342C43.9186 33.9132 43.9186 32.9062 44.5308 32.2852L66.4784 10.0209C67.0906 9.39983 68.0832 9.39983 68.6954 10.0209Z" fill="#202040"/>
<path fill-rule="evenodd" clip-rule="evenodd" d="M55.0454 22.2775C55.0454 21.3992 55.7473 20.6872 56.6131 20.6872H69.1546C70.0204 20.6872 70.7223 21.3992 70.7223 22.2775C70.7223 23.1558 70.0204 23.8679 69.1546 23.8679H56.6131C55.7473 23.8679 55.0454 23.1558 55.0454 22.2775Z" fill="#202040"/>
</svg>
