<svg width="50" height="50" viewBox="0 0 50 50" fill="none" xmlns="http://www.w3.org/2000/svg">
<path fill-rule="evenodd" clip-rule="evenodd" d="M18.7499 25C18.7499 21.5482 21.5481 18.75 24.9999 18.75C28.4517 18.75 31.2499 21.5482 31.2499 25C31.2499 28.4518 28.4517 31.25 24.9999 31.25C21.5481 31.25 18.7499 28.4518 18.7499 25ZM24.9999 22.9167C23.8493 22.9167 22.9166 23.8494 22.9166 25C22.9166 26.1506 23.8493 27.0833 24.9999 27.0833C26.1505 27.0833 27.0833 26.1506 27.0833 25C27.0833 23.8494 26.1505 22.9167 24.9999 22.9167Z" fill="#202040"/>
<path fill-rule="evenodd" clip-rule="evenodd" d="M35.4166 25C35.4166 21.5482 38.2148 18.75 41.6666 18.75C45.1184 18.75 47.9166 21.5482 47.9166 25C47.9166 28.4518 45.1184 31.25 41.6666 31.25C38.2148 31.25 35.4166 28.4518 35.4166 25ZM41.6666 22.9167C40.516 22.9167 39.5833 23.8494 39.5833 25C39.5833 26.1506 40.516 27.0833 41.6666 27.0833C42.8172 27.0833 43.7499 26.1506 43.7499 25C43.7499 23.8494 42.8172 22.9167 41.6666 22.9167Z" fill="#202040"/>
<path fill-rule="evenodd" clip-rule="evenodd" d="M2.08325 25C2.08325 21.5482 4.88147 18.75 8.33325 18.75C11.785 18.75 14.5833 21.5482 14.5833 25C14.5833 28.4518 11.785 31.25 8.33325 31.25C4.88147 31.25 2.08325 28.4518 2.08325 25ZM8.33325 22.9167C7.18266 22.9167 6.24992 23.8494 6.24992 25C6.24992 26.1506 7.18266 27.0833 8.33325 27.0833C9.48384 27.0833 10.4166 26.1506 10.4166 25C10.4166 23.8494 9.48384 22.9167 8.33325 22.9167Z" fill="#202040"/>
</svg>
