<svg width="24" height="16" viewBox="0 0 24 16" fill="none" xmlns="http://www.w3.org/2000/svg">
<path fill-rule="evenodd" clip-rule="evenodd" d="M0 8C0 3.58172 3.58172 0 8 0H16C20.4183 0 24 3.58172 24 8C24 12.4183 20.4183 16 16 16H8C3.58172 16 0 12.4183 0 8ZM8 2C4.68629 2 2 4.68629 2 8C2 11.3137 4.68629 14 8 14H16C19.3137 14 22 11.3137 22 8C22 4.68629 19.3137 2 16 2H8Z" fill="#202040"/>
<path fill-rule="evenodd" clip-rule="evenodd" d="M4 8C4 5.79086 5.79086 4 8 4C10.2091 4 12 5.79086 12 8C12 10.2091 10.2091 12 8 12C5.79086 12 4 10.2091 4 8ZM8 6C6.89543 6 6 6.89543 6 8C6 9.10457 6.89543 10 8 10C9.10457 10 10 9.10457 10 8C10 6.89543 9.10457 6 8 6Z" fill="#202040"/>
</svg>
